wght1000_wdth50.ufo
<glyph name="zero" format="2">
	<unicode hex="0030"/>
	<advance width="1229"/>
	<outline>
		<contour>
			<point x="73.9984130859" y="747.2963867188" type="qcurve" smooth="yes"/>
			<point x="73.9984130859" y="1114.858581543"/>
			<point x="377.151184082" y="1509.0347900391"/>
			<point x="617.4489746094" y="1509.0347900391" type="qcurve" smooth="yes"/>
			<point x="861.0499267578" y="1509.0347900391"/>
			<point x="1155.0033569336" y="1119.8186035156"/>
			<point x="1155.0033569336" y="750.2564086914" type="qcurve" smooth="yes"/>
			<point x="1155.0033569336" y="393.5343017578"/>
			<point x="866.3536376953" y="-21.5219726562"/>
			<point x="623.3451538086" y="-21.5219726562" type="qcurve" smooth="yes"/>
			<point x="379.8480224609" y="-21.5219726562"/>
			<point x="73.9984130859" y="372.0229492188"/>
		</contour>
		<contour>
			<point x="285.5570068359" y="761.9276733398" type="qcurve" smooth="yes"/>
			<point x="259" y="481"/>
			<point x="448.6685791016" y="91.5848388672"/>
			<point x="615.4489746094" y="91.5848388672" type="qcurve" smooth="yes"/>
			<point x="780.2293701172" y="91.5848388672"/>
			<point x="917" y="447"/>
			<point x="943.4447631836" y="746.2963867188" type="qcurve" smooth="yes"/>
			<point x="917" y="1027"/>
			<point x="775.1255493164" y="1388.9282226562"/>
			<point x="616.3451538086" y="1388.9282226562" type="qcurve" smooth="yes"/>
			<point x="454.5647583008" y="1388.9282226562"/>
			<point x="259" y="1060"/>
		</contour>
	</outline>
</glyph>
<glyph name="one" format="2">
	<unicode hex="0031"/>
	<advance width="852"/>
	<outline>
		<contour>
			<point x="139.9846191406" y="0" type="line"/>
			<point x="139.9846191406" y="92.9990234375" type="line"/>
			<point x="397.9809570312" y="137.9990234375" type="line"/>
			<point x="397.9809570312" y="750.4019775391" type="line"/>
			<point x="395.9809570312" y="1324.9364013672" type="line"/>
			<point x="99.4012451172" y="1352.3997802734" type="line"/>
			<point x="99.4012451172" y="1473.0054931641" type="line"/>
			<point x="547.2729492188" y="1488.5421142578" type="line"/>
			<point x="579.2729492188" y="1453.5421142578" type="line"/>
			<point x="573.2729492188" y="750.4019775391" type="line"/>
			<point x="573.2729492188" y="137.9990234375" type="line"/>
			<point x="801.2692871094" y="92.9990234375" type="line"/>
			<point x="801.2692871094" y="0" type="line"/>
		</contour>
	</outline>
</glyph>
<glyph name="two" format="2">
	<unicode hex="0032"/>
	<advance width="1131"/>
	<outline>
		<contour>
			<point x="41.6745605469" y="0" type="line"/>
			<point x="41.6745605469" y="14.1369628906" type="line"/>
			<point x="50.2037963867" y="121.8201904297"/>
			<point x="269.7911376953" y="400.4259033203"/>
			<point x="450.0767211914" y="525.482421875" type="qcurve" smooth="yes"/>
			<point x="651.3242797852" y="669.3539428711"/>
			<point x="860.2030029297" y="956.528503418"/>
			<point x="860.2030029297" y="1083.6374511719" type="qcurve" smooth="yes"/>
			<point x="860.2030029297" y="1186.5889282227"/>
			<point x="700.7085571289" y="1279.5283203125"/>
			<point x="587.4592895508" y="1279.5283203125" type="qcurve" smooth="yes"/>
			<point x="448.5012207031" y="1279.5283203125"/>
			<point x="212.1642456055" y="1194.1636352539"/>
			<point x="142.6745605469" y="1142.7958984375" type="qcurve"/>
			<point x="46.6745605469" y="1256.2778320312" type="line"/>
			<point x="126.8214111328" y="1320.1511230469"/>
			<point x="435.0323486328" y="1510.0347900391"/>
			<point x="665.542175293" y="1510.0347900391" type="qcurve" smooth="yes"/>
			<point x="776.4979858398" y="1510.0347900391"/>
			<point x="1070.3319091797" y="1311.3453369141"/>
			<point x="1075.3319091797" y="1090.7706298828" type="qcurve" smooth="yes"/>
			<point x="1081.3319091797" y="846.3040771484"/>
			<point x="753.3257446289" y="543.0493774414"/>
			<point x="627.548034668" y="459.2495117188" type="qcurve" smooth="yes"/>
			<point x="395.0394897461" y="337.358215332"/>
			<point x="192.430847168" y="194.180480957"/>
			<point x="153.7943115234" y="134.8818359375" type="qcurve"/>
			<point x="155.7943115234" y="133.0322265625" type="line"/>
			<point x="1071.8560180664" y="133.0322265625" type="line"/>
			<point x="1071.8560180664" y="0" type="line"/>
		</contour>
	</outline>
</glyph>
<glyph name="three" format="2">
	<unicode hex="0033"/>
	<advance width="1123"/>
	<outline>
		<contour>
			<point x="-47.5687255859" y="197" type="qcurve"/>
			<point x="68.0904541016" y="306.8044433594" type="line"/>
			<point x="150.1884765625" y="227.9736328125"/>
			<point x="320.9119262695" y="155.0819091797"/>
			<point x="490.5406494141" y="155.0819091797" type="qcurve" smooth="yes"/>
			<point x="634.1248168945" y="155.0819091797"/>
			<point x="817.4321289062" y="282.6406860352"/>
			<point x="817.4321289062" y="430.4003295898" type="qcurve" smooth="yes"/>
			<point x="817.4321289062" y="572.2623291016"/>
			<point x="554.0406494141" y="691.341003418"/>
			<point x="343.7291870117" y="691.341003418" type="qcurve" smooth="yes"/>
			<point x="264.9027709961" y="691.341003418" type="line"/>
			<point x="219.2906494141" y="840.4036865234" type="line"/>
			<point x="357.1134643555" y="846.4998168945" type="line" smooth="yes"/>
			<point x="519.7244873047" y="852.8159179688"/>
			<point x="790.678527832" y="982.6021118164"/>
			<point x="787.678527832" y="1121.6207885742" type="qcurve" smooth="yes"/>
			<point x="785.678527832" y="1239.5854492188"/>
			<point x="632.3324584961" y="1324.676940918"/>
			<point x="549.0179443359" y="1323.676940918" type="qcurve" smooth="yes"/>
			<point x="410.7604980469" y="1322.676940918"/>
			<point x="258.7235717773" y="1230.5638427734"/>
			<point x="196.1018066406" y="1164.9537353516" type="qcurve"/>
			<point x="76.2142333984" y="1306.0814819336" type="line"/>
			<point x="161.1284790039" y="1391.4342041016"/>
			<point x="393.0003662109" y="1514.9548339844"/>
			<point x="586.0530395508" y="1514.9548339844" type="qcurve" smooth="yes"/>
			<point x="772.5202026367" y="1514.9548339844"/>
			<point x="1006.0740356445" y="1342.1541748047"/>
			<point x="1006.0740356445" y="1187.1243286133" type="qcurve" smooth="yes"/>
			<point x="1006.0740356445" y="1028.1237792969"/>
			<point x="801.1561889648" y="862.8045654297"/>
			<point x="647.3338623047" y="829.6029663086" type="qcurve"/>
			<point x="647.3338623047" y="822.6829223633" type="line"/>
			<point x="814.1561889648" y="796.7539672852"/>
			<point x="1046.272277832" y="609.2420654297"/>
			<point x="1046.272277832" y="429.0980224609" type="qcurve" smooth="yes"/>
			<point x="1046.272277832" y="232.5763549805"/>
			<point x="751.8089599609" y="-21.0244140625"/>
			<point x="501.3883056641" y="-21.0244140625" type="qcurve" smooth="yes"/>
			<point x="318.0966796875" y="-21.0244140625"/>
			<point x="10.1317749023" y="105.7892456055"/>
		</contour>
	</outline>
</glyph>
<glyph name="four" format="2">
	<unicode hex="0034"/>
	<advance width="1306"/>
	<outline>
		<contour>
			<point x="6.1611328125" y="552.9616699219" type="line"/>
			<point x="1016.0921020508" y="1500.5855712891" type="line"/>
			<point x="1285.6184692383" y="1493.5855712891" type="line"/>
			<point x="1074.3840942383" y="1422.5855712891" type="line"/>
			<point x="1069.3840942383" y="511.9616699219" type="line"/>
			<point x="1069.3840942383" y="127.9990234375" type="line"/>
			<point x="1216.4041137695" y="92.9990234375" type="line"/>
			<point x="1216.4041137695" y="0" type="line"/>
			<point x="722.7466430664" y="0" type="line"/>
			<point x="722.7466430664" y="92.9990234375" type="line"/>
			<point x="909.0921020508" y="127.9990234375" type="line"/>
			<point x="909.0921020508" y="509.9616699219" type="line"/>
			<point x="913.0921020508" y="1226.828125" type="line"/>
			<point x="216.6770629883" y="582.5443115234" type="line"/>
			<point x="215.6770629883" y="564.5443115234" type="line"/>
			<point x="1322.6689453125" y="549.1672363281" type="line"/>
			<point x="1322.6689453125" y="416.6602783203" type="line"/>
			<point x="22.1611328125" y="411.6602783203" type="line"/>
		</contour>
	</outline>
</glyph>
<glyph name="five" format="2">
	<unicode hex="0035"/>
	<advance width="1143"/>
	<outline>
		<contour>
			<point x="-36.1090087891" y="152" type="qcurve"/>
			<point x="77.371887207" y="277.9436645508" type="line"/>
			<point x="140.1528930664" y="257.9345703125"/>
			<point x="365.1296386719" y="147.4810791016"/>
			<point x="516.7990722656" y="147.4810791016" type="qcurve" smooth="yes"/>
			<point x="681.3140258789" y="147.4810791016"/>
			<point x="878.3134765625" y="289.8196411133"/>
			<point x="878.3134765625" y="461.4342041016" type="qcurve" smooth="yes"/>
			<point x="878.3134765625" y="615.4010009766"/>
			<point x="634.3126220703" y="742.7793579102"/>
			<point x="361.4981079102" y="742.7793579102" type="qcurve" smooth="yes"/>
			<point x="179.2190551758" y="742.7793579102" type="line"/>
			<point x="159.2190551758" y="753.7229003906" type="line"/>
			<point x="182.2190551758" y="1457.6451416016" type="line"/>
			<point x="205.2190551758" y="1490.6451416016" type="line"/>
			<point x="989.928527832" y="1490.6451416016" type="line"/>
			<point x="1006.3581542969" y="1360.6500244141" type="line"/>
			<point x="341.4680786133" y="1360.6500244141" type="line"/>
			<point x="328.2681274414" y="1352.6500244141" type="line"/>
			<point x="287.4243774414" y="883.1226806641" type="line"/>
			<point x="528.7213745117" y="915.8828125" type="line"/>
			<point x="732.5610351562" y="925.0444946289"/>
			<point x="1083.9609375" y="702.6942749023"/>
			<point x="1083.9609375" y="496.9732055664" type="qcurve" smooth="yes"/>
			<point x="1083.9609375" y="264.4963989258"/>
			<point x="802.5385742188" y="-21.0244140625"/>
			<point x="595.7103271484" y="-21.0244140625" type="qcurve" smooth="yes"/>
			<point x="366.8993530273" y="-21.0244140625"/>
			<point x="39.6412353516" y="99.811706543"/>
		</contour>
	</outline>
</glyph>
<glyph name="six" format="2">
	<unicode hex="0036"/>
	<advance width="1170"/>
	<outline>
		<contour>
			<point x="69.9984130859" y="687.9622192383" type="qcurve" smooth="yes"/>
			<point x="69.9984130859" y="1063.4689941406"/>
			<point x="541.7750244141" y="1527.6729125977"/>
			<point x="966.8566894531" y="1542.5421142578" type="qcurve"/>
			<point x="971.8732910156" y="1360.1812744141" type="line"/>
			<point x="598.302734375" y="1379.3979492188"/>
			<point x="262.1644287109" y="1082.6858520508"/>
			<point x="262.1644287109" y="644.9622192383" type="qcurve" smooth="yes"/>
			<point x="262.1644287109" y="386.1834716797"/>
			<point x="481.8994140625" y="99.4782714844"/>
			<point x="634.2806396484" y="99.4782714844" type="qcurve" smooth="yes"/>
			<point x="802.6608886719" y="99.4782714844"/>
			<point x="952.0452270508" y="405.4174194336"/>
			<point x="952.1452026367" y="465.2839355469" type="qcurve" smooth="yes"/>
			<point x="952.2451782227" y="668.7006835938"/>
			<point x="786.2686767578" y="801.3986206055"/>
			<point x="646.48828125" y="801.3986206055" type="qcurve" smooth="yes"/>
			<point x="552.5280761719" y="801.3986206055"/>
			<point x="443.3262939453" y="753.3616943359"/>
			<point x="401.4731445312" y="711.9263305664" type="qcurve"/>
			<point x="367.5531005859" y="791.811340332" type="line"/>
			<point x="376.3978881836" y="851.9594116211"/>
			<point x="538.6810302734" y="977.0040283203"/>
			<point x="633.8280029297" y="977.0040283203" type="qcurve" smooth="yes"/>
			<point x="856.8597412109" y="977.0040283203"/>
			<point x="1130.3629760742" y="762.5224609375"/>
			<point x="1130.3629760742" y="542.9505004883" type="qcurve" smooth="yes"/>
			<point x="1130.3629760742" y="274.7141113281"/>
			<point x="800.6745605469" y="-21.5268554688"/>
			<point x="630.6320800781" y="-21.5268554688" type="qcurve" smooth="yes"/>
			<point x="429.1497192383" y="-21.5268554688"/>
			<point x="69.9984130859" y="404.0298461914"/>
		</contour>
	</outline>
</glyph>
<glyph name="seven" format="2">
	<unicode hex="0037"/>
	<advance width="1189"/>
	<outline>
		<contour>
			<point x="14.8580322266" y="1161.1776123047" type="line"/>
			<point x="17.2807617188" y="1490.6451416016" type="line"/>
			<point x="1191.7064819336" y="1490.6451416016" type="line"/>
			<point x="1191.7064819336" y="1452.9029541016" type="line"/>
			<point x="730.151184082" y="675.19921875" type="line"/>
			<point x="398.491394043" y="2.9560546875" type="line"/>
			<point x="238.897644043" y="2.9560546875" type="line"/>
			<point x="238.897644043" y="114.9560546875" type="line"/>
			<point x="590.6814575195" y="697.9622192383" type="line"/>
			<point x="1102.9924926758" y="1365.1314697266" type="line"/>
			<point x="1078.2595825195" y="1396.1832275391" type="line"/>
			<point x="174.0822753906" y="1396.1832275391" type="line"/>
			<point x="126.6198730469" y="1161.1776123047" type="line"/>
		</contour>
	</outline>
</glyph>
<glyph name="eight" format="2">
	<unicode hex="0038"/>
	<advance width="1118"/>
	<outline>
		<contour>
			<point x="41.8909912109" y="390.3375854492" type="qcurve" smooth="yes"/>
			<point x="41.8909912109" y="586.5642089844"/>
			<point x="351.5718383789" y="821.5491333008"/>
			<point x="603.3791503906" y="872.0843505859" type="qcurve"/>
			<point x="712.7894897461" y="821.4089355469" type="line"/>
			<point x="572.5862426758" y="778.6951293945"/>
			<point x="400.6396484375" y="574.3079223633"/>
			<point x="400.6396484375" y="375.7706298828" type="qcurve" smooth="yes"/>
			<point x="400.6396484375" y="213.6858520508"/>
			<point x="468.7191162109" y="91.8825683594"/>
			<point x="592.8215332031" y="91.8825683594" type="qcurve" smooth="yes"/>
			<point x="729.1204833984" y="91.8825683594"/>
			<point x="928.5823974609" y="258.5120239258"/>
			<point x="928.5823974609" y="394.3905639648" type="qcurve" smooth="yes"/>
			<point x="928.5823974609" y="541.9488525391"/>
			<point x="854.1839599609" y="675.0825805664"/>
			<point x="694.0936889648" y="727.942565918" type="qcurve" smooth="yes"/>
			<point x="401.2785644531" y="875.9690551758"/>
			<point x="160.5141601562" y="1048.9664916992"/>
			<point x="160.5141601562" y="1231.8906860352" type="qcurve" smooth="yes"/>
			<point x="160.5141601562" y="1353.6123046875"/>
			<point x="379.958984375" y="1522.8424072266"/>
			<point x="532.0400390625" y="1522.8424072266" type="qcurve" smooth="yes"/>
			<point x="727.0678710938" y="1522.8424072266"/>
			<point x="972.8489379883" y="1348.7121582031"/>
			<point x="972.8489379883" y="1207.1631469727" type="qcurve" smooth="yes"/>
			<point x="972.8489379883" y="1082.1412963867"/>
			<point x="775.7749633789" y="886.5025634766"/>
			<point x="595.2272949219" y="802.4163208008" type="qcurve"/>
			<point x="484.5963745117" y="848.5604248047" type="line"/>
			<point x="579.5084838867" y="924.3975830078"/>
			<point x="657.0341186523" y="1118.4982910156"/>
			<point x="657.0341186523" y="1219.1598510742" type="qcurve" smooth="yes"/>
			<point x="657.0341186523" y="1323.8729858398"/>
			<point x="576.2907714844" y="1399.3798217773"/>
			<point x="497.2534179688" y="1399.3798217773" type="qcurve" smooth="yes"/>
			<point x="409.4458618164" y="1399.3798217773"/>
			<point x="252.0432128906" y="1247.6345214844"/>
			<point x="252.0432128906" y="1193.3336181641" type="qcurve" smooth="yes"/>
			<point x="252.0432128906" y="1074.0764770508"/>
			<point x="458.1763305664" y="932.841003418"/>
			<point x="709.8986816406" y="821.0712890625" type="qcurve" smooth="yes"/>
			<point x="844.1812744141" y="771.1958618164"/>
			<point x="1078.337890625" y="593.74609375"/>
			<point x="1078.337890625" y="398.6701049805" type="qcurve" smooth="yes"/>
			<point x="1078.337890625" y="233.5283203125"/>
			<point x="832.8197021484" y="-21.5219726562"/>
			<point x="588.4396972656" y="-21.5219726562" type="qcurve" smooth="yes"/>
			<point x="315.6466674805" y="-21.5219726562"/>
			<point x="41.8909912109" y="200.328125"/>
		</contour>
	</outline>
</glyph>
<glyph name="nine" format="2">
	<unicode hex="0039"/>
	<advance width="1167"/>
	<outline>
		<contour>
			<point x="39.2962036133" y="956.0095825195" type="qcurve" smooth="yes"/>
			<point x="39.2962036133" y="1211.3011474609"/>
			<point x="387.748840332" y="1508.7460327148"/>
			<point x="544.2919921875" y="1508.7460327148" type="qcurve" smooth="yes"/>
			<point x="717.8562011719" y="1508.7460327148"/>
			<point x="1096.9722290039" y="1112.4155273438"/>
			<point x="1096.9722290039" y="798.0530395508" type="qcurve" smooth="yes"/>
			<point x="1096.9722290039" y="439.2938232422"/>
			<point x="627.9241333008" y="-44.0496826172"/>
			<point x="198.7213745117" y="-61.6473999023" type="qcurve"/>
			<point x="195.4971313477" y="119.5573120117" type="line"/>
			<point x="565.6861572266" y="96.7559204102"/>
			<point x="894.4104614258" y="403.7893066406"/>
			<point x="894.4104614258" y="841.0130615234" type="qcurve" smooth="yes"/>
			<point x="894.4104614258" y="1112.3826904297"/>
			<point x="684.5642700195" y="1392.8396606445"/>
			<point x="534.0127563477" y="1392.8396606445" type="qcurve" smooth="yes"/>
			<point x="356.7565917969" y="1392.8396606445"/>
			<point x="207.1182250977" y="1092.6777954102"/>
			<point x="207.1182250977" y="1019.7315673828" type="qcurve" smooth="yes"/>
			<point x="207.1182250977" y="802.5556030273"/>
			<point x="415.4667358398" y="679.8958129883"/>
			<point x="566.7955932617" y="679.8958129883" type="qcurve" smooth="yes"/>
			<point x="609.5285644531" y="679.8958129883"/>
			<point x="719.2025146484" y="726.5589599609"/>
			<point x="759.5107421875" y="764.9169921875" type="qcurve"/>
			<point x="793.5507202148" y="684.891418457" type="line"/>
			<point x="790.2362670898" y="636.9633789062"/>
			<point x="650.1893310547" y="501.0913085938"/>
			<point x="484.9554443359" y="501.7875976562" type="qcurve" smooth="yes"/>
			<point x="310.7105712891" y="503.8764648438"/>
			<point x="39.2962036133" y="721.4205932617"/>
		</contour>
	</outline>
</glyph>
<glyph name="B" format="2">
	<unicode hex="0042"/>
	<advance width="1091"/>
	<outline>
		<contour>
			<point x="82.9962158203" y="0" type="line"/>
			<point x="82.9962158203" y="99.9990234375" type="line"/>
			<point x="290.9991455078" y="133.9990234375" type="line"/>
			<point x="292.9991455078" y="742.88671875" type="line"/>
			<point x="290.9991455078" y="1354.0009765625" type="line"/>
			<point x="82.9962158203" y="1388.0009765625" type="line"/>
			<point x="82.9962158203" y="1500" type="line"/>
			<point x="537.6072998047" y="1500" type="line" smooth="yes"/>
			<point x="745.4835205078" y="1500"/>
			<point x="964.6706542969" y="1312"/>
			<point x="964.6706542969" y="1163" type="qcurve" smooth="yes"/>
			<point x="964.6706542969" y="1006"/>
			<point x="816.4010009766" y="852"/>
			<point x="707.9310302734" y="830" type="qcurve"/>
			<point x="707.9310302734" y="823" type="line"/>
			<point x="855.2885742188" y="789"/>
			<point x="1193" y="604"/>
			<point x="1067.5534667969" y="433" type="qcurve" smooth="yes"/>
			<point x="1067.5534667969" y="246"/>
			<point x="740.7780761719" y="0"/>
			<point x="550.0076904297" y="0" type="qcurve" smooth="yes"/>
		</contour>
		<contour>
			<point x="465.9923095703" y="149.0847167969" type="line"/>
			<point x="496.1016845703" y="117.7526855469" type="line"/>
			<point x="600.3145751953" y="117.7526855469" type="line" smooth="yes"/>
			<point x="759.3145751953" y="117.7526855469"/>
			<point x="883.0147705078" y="318.442565918"/>
			<point x="883.0147705078" y="437.8942871094" type="qcurve" smooth="yes"/>
			<point x="883.0147705078" y="559.5869750977"/>
			<point x="780.8614501953" y="737.0075683594"/>
			<point x="669.8614501953" y="737.0075683594" type="qcurve" smooth="yes"/>
			<point x="475.7696533203" y="737.0075683594" type="line"/>
			<point x="463.9923095703" y="720.3415527344" type="line"/>
		</contour>
		<contour>
			<point x="464.9923095703" y="872.5517578125" type="line"/>
			<point x="472.8253173828" y="858.7744140625" type="line"/>
			<point x="620.6446533203" y="858.7744140625" type="line" smooth="yes"/>
			<point x="729.6446533203" y="858.7744140625"/>
			<point x="819.1319580078" y="1002.7473754883"/>
			<point x="819.1319580078" y="1116.0424804688" type="qcurve" smooth="yes"/>
			<point x="819.1319580078" y="1264.1448364258"/>
			<point x="733.1993408203" y="1371.4233398438"/>
			<point x="633.1993408203" y="1371.4233398438" type="qcurve" smooth="yes"/>
			<point x="491.1016845703" y="1371.4233398438" type="line"/>
			<point x="466.9923095703" y="1348.0356445312" type="line"/>
		</contour>
	</outline>
	<anchor name="bottom" x="614" y="0"/>
	<anchor name="top" x="614" y="1500"/>
</glyph>
<glyph name="F" format="2">
	<unicode hex="0046"/>
	<advance width="1093"/>
	<outline>
		<contour>
			<point x="83.9962158203" y="0" type="line"/>
			<point x="83.9962158203" y="99.9990234375" type="line"/>
			<point x="290.9991455078" y="132.9990234375" type="line"/>
			<point x="292.9991455078" y="748" type="line"/>
			<point x="290.9991455078" y="1354.0009765625" type="line"/>
			<point x="83.9962158203" y="1388.0009765625" type="line"/>
			<point x="83.9962158203" y="1500" type="line"/>
			<point x="1028.9211425781" y="1500" type="line"/>
			<point x="1028.9211425781" y="1131.8039550781" type="line"/>
			<point x="910.9172363281" y="1131.8039550781" type="line"/>
			<point x="875.9172363281" y="1356.8107910156" type="line"/>
			<point x="505.283203125" y="1356.8107910156" type="line"/>
			<point x="469.283203125" y="1332.8107910156" type="line"/>
			<point x="473.283203125" y="760" type="line"/>
			<point x="475.283203125" y="136.9990234375" type="line"/>
			<point x="746.1325683594" y="100.9990234375" type="line"/>
			<point x="746.1325683594" y="0" type="line"/>
		</contour>
		<contour>
			<point x="437.7419433594" y="710.6342773438" type="line"/>
			<point x="437.7419433594" y="819.2600097656" type="line"/>
			<point x="712.7640380859" y="829.2600097656" type="line"/>
			<point x="739.7640380859" y="1002.9315185547" type="line"/>
			<point x="843.9007568359" y="1002.9315185547" type="line"/>
			<point x="843.9007568359" y="528.6291503906" type="line"/>
			<point x="739.7640380859" y="528.6291503906" type="line"/>
			<point x="712.7640380859" y="700.6342773438" type="line"/>
		</contour>
	</outline>
	<anchor name="bottom" x="578" y="0"/>
	<anchor name="top" x="622" y="1500"/>
</glyph>
<glyph name="I" format="2">
	<unicode hex="0049"/>
	<advance width="807"/>
	<outline>
		<contour>
			<point x="85.4534912109" y="0" type="line"/>
			<point x="85.4534912109" y="99.9990234375" type="line"/>
			<point x="314.3796386719" y="134.9990234375" type="line"/>
			<point x="316.3796386719" y="754" type="line"/>
			<point x="314.3796386719" y="1354.0009765625" type="line"/>
			<point x="85.4534912109" y="1388.0009765625" type="line"/>
			<point x="85.4534912109" y="1500" type="line"/>
			<point x="721.58984375" y="1500" type="line"/>
			<point x="721.58984375" y="1388.0009765625" type="line"/>
			<point x="492.6636962891" y="1354.0009765625" type="line"/>
			<point x="490.6636962891" y="754" type="line"/>
			<point x="492.6636962891" y="133.9990234375" type="line"/>
			<point x="721.58984375" y="99.9990234375" type="line"/>
			<point x="721.58984375" y="0" type="line"/>
		</contour>
	</outline>
	<anchor name="bottom" x="390" y="0"/>
	<anchor name="ogonek" x="526" y="0"/>
	<anchor name="top" x="390" y="1500"/>
	<anchor name="tonos" x="0" y="1500"/>
	<anchor name="yu_dash" x="380" y="755"/>
	<anchor name="_Yeru_I" x="82" y="0"/>
	<anchor name="liga" x="780" y="0"/>
</glyph>
<glyph name="K" format="2">
	<unicode hex="004B"/>
	<advance width="1287"/>
	<outline>
		<contour>
			<point x="82.9962158203" y="0" type="line"/>
			<point x="82.9962158203" y="99.9990234375" type="line"/>
			<point x="290.9991455078" y="134.9990234375" type="line"/>
			<point x="292.9991455078" y="754" type="line"/>
			<point x="290.9991455078" y="1354.0009765625" type="line"/>
			<point x="82.9962158203" y="1388.0009765625" type="line"/>
			<point x="82.9962158203" y="1500" type="line"/>
			<point x="692.3629150391" y="1500" type="line"/>
			<point x="692.3629150391" y="1388.0009765625" type="line"/>
			<point x="469.283203125" y="1354.0009765625" type="line"/>
			<point x="467.283203125" y="754" type="line"/>
			<point x="469.283203125" y="134.9990234375" type="line"/>
			<point x="659.2861328125" y="99.9990234375" type="line"/>
			<point x="659.2861328125" y="0" type="line"/>
		</contour>
		<contour>
			<point x="364.330078125" y="520.3725585938" type="line"/>
			<point x="357.330078125" y="578.5975341797" type="line"/>
			<point x="1063.6080322266" y="1360.0009765625" type="line"/>
			<point x="862.836730957" y="1389.0009765625" type="line"/>
			<point x="862.836730957" y="1500" type="line"/>
			<point x="1445.7487792969" y="1500" type="line"/>
			<point x="1445.7487792969" y="1389.0009765625" type="line"/>
			<point x="1208.5155029297" y="1360.0009765625" type="line"/>
			<point x="685.6083984375" y="835.4584960938" type="line"/>
			<point x="624.6518554688" y="788.13671875" type="line"/>
		</contour>
		<contour>
			<point x="591.8186035156" y="721.8354492188" type="line"/>
			<point x="692.5762939453" y="920.3948974609" type="line"/>
			<point x="1241.7742919922" y="133.9990234375" type="line"/>
			<point x="1412.4688110352" y="99.9990234375" type="line"/>
			<point x="1412.4688110352" y="0" type="line"/>
			<point x="912.3260498047" y="0" type="line"/>
			<point x="912.3260498047" y="99.9990234375" type="line"/>
			<point x="1066.6361083984" y="133.9990234375" type="line"/>
		</contour>
	</outline>
	<anchor name="bottom" x="812" y="0"/>
	<anchor name="top" x="770" y="1500"/>
</glyph>
<glyph name="L" format="2">
	<unicode hex="004C"/>
	<advance width="1233"/>
	<outline>
		<contour>
			<point x="82.9962158203" y="0" type="line"/>
			<point x="82.9962158203" y="99.9990234375" type="line"/>
			<point x="290.9991455078" y="134.9990234375" type="line"/>
			<point x="292.9991455078" y="754" type="line"/>
			<point x="290.9991455078" y="1354.0009765625" type="line"/>
			<point x="82.9962158203" y="1388.0009765625" type="line"/>
			<point x="82.9962158203" y="1500" type="line"/>
			<point x="719.2095336914" y="1500" type="line"/>
			<point x="719.2095336914" y="1388.0009765625" type="line"/>
			<point x="474.283203125" y="1354.0009765625" type="line"/>
			<point x="472.283203125" y="754" type="line"/>
			<point x="475.283203125" y="138.7172851562" type="line"/>
			<point x="495.283203125" y="115.7172851562" type="line"/>
			<point x="1044.1845703125" y="115.7172851562" type="line"/>
			<point x="1098.1845703125" y="423.0594482422" type="line"/>
			<point x="1228.8681640625" y="423.0594482422" type="line"/>
			<point x="1199.8681640625" y="0" type="line"/>
		</contour>
	</outline>
	<anchor name="bottom" x="705" y="0"/>
	<anchor name="centerright" x="928" y="750"/>
	<anchor name="top" x="632" y="1500"/>
	<anchor name="topright" x="784" y="1001"/>
	<anchor name="center" x="378" y="750"/>
	<anchor name="liga" x="1264" y="0"/>
</glyph>
<glyph name="O" format="2">
	<unicode hex="004F"/>
	<advance width="1654"/>
	<outline>
		<contour>
			<point x="81.001953125" y="747" type="qcurve" smooth="yes"/>
			<point x="81.001953125" y="1072.7658691406"/>
			<point x="494.7777099609" y="1519.5366210938"/>
			<point x="829.84765625" y="1519.5366210938" type="qcurve" smooth="yes"/>
			<point x="1163.0845947266" y="1519.5366210938"/>
			<point x="1572.9716796875" y="1101.7658691406"/>
			<point x="1572.9716796875" y="762" type="qcurve" smooth="yes"/>
			<point x="1572.9716796875" y="438.2341308594"/>
			<point x="1166.6107177734" y="-8.5366210938"/>
			<point x="830.958984375" y="-8.5366210938" type="qcurve" smooth="yes"/>
			<point x="490.6469726562" y="-8.5366210938"/>
			<point x="81.001953125" y="412.2341308594"/>
		</contour>
		<contour>
			<point x="266.9580078125" y="783" type="qcurve" smooth="yes"/>
			<point x="266.9580078125" y="456.0484619141"/>
			<point x="572.958984375" y="133.9272460938"/>
			<point x="828.958984375" y="133.9272460938" type="qcurve" smooth="yes"/>
			<point x="1107.958984375" y="133.9272460938"/>
			<point x="1389.015625" y="424.7954101562"/>
			<point x="1389.015625" y="759" type="qcurve" smooth="yes"/>
			<point x="1389.015625" y="1060.794921875"/>
			<point x="1079.958984375" y="1374.6149902344"/>
			<point x="826.958984375" y="1374.6149902344" type="qcurve" smooth="yes"/>
			<point x="553.958984375" y="1374.6149902344"/>
			<point x="266.9580078125" y="1065.9997558594"/>
		</contour>
	</outline>
	<anchor name="bottom" x="832" y="0"/>
	<anchor name="center" x="832" y="750"/>
	<anchor name="ogonek" x="1064" y="0"/>
	<anchor name="top" x="832" y="1500"/>
	<anchor name="topright" x="1028" y="1500"/>
	<anchor name="tonos" x="140" y="1500"/>
	<anchor name="_yu_dash" x="169" y="755"/>
</glyph>
<glyph name="P" format="2">
	<unicode hex="0050"/>
	<advance width="1117"/>
	<outline>
		<contour>
			<point x="82.9962158203" y="0" type="line"/>
			<point x="82.9962158203" y="98.9990234375" type="line"/>
			<point x="290.9991455078" y="132.9990234375" type="line"/>
			<point x="294.8878173828" y="754" type="line"/>
			<point x="290.9991455078" y="1354.0009765625" type="line"/>
			<point x="82.9962158203" y="1388.0009765625" type="line"/>
			<point x="82.9962158203" y="1500" type="line"/>
			<point x="693.8774414062" y="1500" type="line" smooth="yes"/>
			<point x="866.7972412109" y="1500"/>
			<point x="1081.3326416016" y="1277"/>
			<point x="1081.3326416016" y="1049" type="qcurve" smooth="yes"/>
			<point x="1081.3326416016" y="796"/>
			<point x="823.1885986328" y="571.9721679688"/>
			<point x="660.5808105469" y="571.9721679688" type="qcurve" smooth="yes"/>
			<point x="565.9859619141" y="571.9721679688"/>
			<point x="445.283203125" y="582.9721679688"/>
			<point x="391.396484375" y="590.9721679688" type="qcurve"/>
			<point x="397.396484375" y="708.5559082031" type="line"/>
			<point x="456.05859375" y="701.5559082031"/>
			<point x="527.6419677734" y="694.5559082031"/>
			<point x="623.5784912109" y="694.5559082031" type="qcurve" smooth="yes"/>
			<point x="754.5784912109" y="694.5559082031"/>
			<point x="921.466796875" y="907.4037475586"/>
			<point x="921.466796875" y="1046" type="qcurve" smooth="yes"/>
			<point x="921.466796875" y="1233.3372802734"/>
			<point x="791.3846435547" y="1384.4375"/>
			<point x="661.3846435547" y="1384.4375" type="qcurve" smooth="yes"/>
			<point x="485.283203125" y="1384.4375" type="line"/>
			<point x="468.283203125" y="1364.4375" type="line"/>
			<point x="466.283203125" y="764" type="line"/>
			<point x="468.283203125" y="136.9990234375" type="line"/>
			<point x="697.1325683594" y="99.9990234375" type="line"/>
			<point x="697.1325683594" y="0" type="line"/>
		</contour>
	</outline>
	<anchor name="bottom" x="634" y="0"/>
	<anchor name="top" x="634" y="1500"/>
</glyph>
<glyph name="R" format="2">
	<unicode hex="0052"/>
	<advance width="1312"/>
	<outline>
		<contour>
			<point x="83.9342651367" y="0" type="line"/>
			<point x="83.9342651367" y="98.9990234375" type="line"/>
			<point x="290.9371948242" y="132.9990234375" type="line"/>
			<point x="292.9371948242" y="748.1821289062" type="line"/>
			<point x="290.9371948242" y="1354.0009765625" type="line"/>
			<point x="83.9342651367" y="1388.0009765625" type="line"/>
			<point x="83.9342651367" y="1500" type="line"/>
			<point x="592.877746582" y="1500" type="line" smooth="yes"/>
			<point x="828.7457885742" y="1500"/>
			<point x="1072.9299926758" y="1308.5285644531"/>
			<point x="1072.9299926758" y="1133.0288085938" type="qcurve" smooth="yes"/>
			<point x="1072.9299926758" y="964.9938964844"/>
			<point x="791.3649291992" y="718.099609375"/>
			<point x="618.606262207" y="718.099609375" type="qcurve" smooth="yes"/>
			<point x="526.1019897461" y="718.099609375"/>
			<point x="397.0935668945" y="722.099609375"/>
			<point x="330.1008911133" y="727.099609375" type="qcurve"/>
			<point x="330.1008911133" y="833.5776367188" type="line"/>
			<point x="622.9849243164" y="833.5776367188" type="line" smooth="yes"/>
			<point x="798.9849243164" y="833.5776367188"/>
			<point x="887.3550415039" y="1019.9602661133"/>
			<point x="887.3550415039" y="1115.845703125" type="qcurve" smooth="yes"/>
			<point x="887.3550415039" y="1231.8998413086"/>
			<point x="821.7583618164" y="1372.7121582031"/>
			<point x="671.7583618164" y="1374.7121582031" type="qcurve" smooth="yes"/>
			<point x="481.2212524414" y="1374.7121582031" type="line"/>
			<point x="468.2212524414" y="1358.7121582031" type="line"/>
			<point x="466.2212524414" y="720" type="line"/>
			<point x="468.2212524414" y="132.9990234375" type="line"/>
			<point x="690.7627563477" y="99.9990234375" type="line"/>
			<point x="690.7627563477" y="0" type="line"/>
		</contour>
		<contour>
			<point x="575.8732299805" y="775.2779541016" type="line"/>
			<point x="744.2792358398" y="825.6413574219" type="line"/>
			<point x="1064.5603637695" y="344.9990234375" type="line" smooth="yes"/>
			<point x="1171.6201782227" y="192.9283447266"/>
			<point x="1311.8648071289" y="76.4598999023"/>
			<point x="1374.4268188477" y="103.9990234375" type="qcurve"/>
			<point x="1374.4268188477" y="0" type="line"/>
			<point x="1086.5679321289" y="0" type="line"/>
			<point x="1029.9019165039" y="56" type="line"/>
		</contour>
	</outline>
	<anchor name="bottom" x="803" y="0"/>
	<anchor name="top" x="630" y="1500"/>
</glyph>
<glyph name="a" format="2">
	<unicode hex="0061"/>
	<advance width="1081"/>
	<outline>
		<contour>
			<point x="84.8369140625" y="248.2077636719" type="qcurve" smooth="yes"/>
			<point x="84.8369140625" y="401.4847412109"/>
			<point x="512.5557861328" y="582.5708007812"/>
			<point x="848.4446411133" y="627.2608642578" type="qcurve"/>
			<point x="855.4446411133" y="591.262878418" type="line"/>
			<point x="511.9082641602" y="567.7651977539"/>
			<point x="244.2346191406" y="434.8186645508"/>
			<point x="244.2346191406" y="292.2912597656" type="qcurve" smooth="yes"/>
			<point x="244.2346191406" y="193.1004638672"/>
			<point x="331.1840209961" y="125.1431884766"/>
			<point x="410.2205200195" y="125.1431884766" type="qcurve" smooth="yes"/>
			<point x="484.2021484375" y="125.1431884766"/>
			<point x="659.4409790039" y="196.3731689453"/>
			<point x="681.5263061523" y="243.9116821289" type="qcurve"/>
			<point x="688.5263061523" y="645.8148803711" type="line" smooth="yes"/>
			<point x="690.5263061523" y="816.5097045898"/>
			<point x="591.5197753906" y="921.7380371094"/>
			<point x="485.352355957" y="921.7380371094" type="qcurve" smooth="yes"/>
			<point x="384.654296875" y="921.7380371094"/>
			<point x="277.1132202148" y="852.3613891602"/>
			<point x="290.3624267578" y="844.1654663086" type="qcurve"/>
			<point x="291.6981201172" y="820.7053222656"/>
			<point x="336.6470336914" y="779.8677978516"/>
			<point x="341.0380249023" y="740.5792236328" type="qcurve" smooth="yes"/>
			<point x="350.7965087891" y="700.7280273438"/>
			<point x="289.2763061523" y="649.2470703125"/>
			<point x="254.6846313477" y="649.2470703125" type="qcurve" smooth="yes"/>
			<point x="226.9822387695" y="649.2470703125"/>
			<point x="162.012512207" y="713.9058837891"/>
			<point x="162.012512207" y="784.3868408203" type="qcurve" smooth="yes"/>
			<point x="162.012512207" y="898.7454833984"/>
			<point x="330.7340087891" y="1020.0922851562"/>
			<point x="472.7199707031" y="1020.0922851562" type="qcurve" smooth="yes"/>
			<point x="643.4230957031" y="1020.0922851562"/>
			<point x="830.0928344727" y="869.4579467773"/>
			<point x="831.0928344727" y="709.0973510742" type="qcurve" smooth="yes"/>
			<point x="833.0928344727" y="114.9975585938" type="line"/>
			<point x="1021.4049072266" y="79.9975585938" type="line"/>
			<point x="1021.4049072266" y="0" type="line"/>
			<point x="761.4446411133" y="0" type="line"/>
			<point x="726.4446411133" y="50" type="line"/>
			<point x="699.3897705078" y="126.5183105469" type="line"/>
			<point x="668.4119262695" y="68.1961669922"/>
			<point x="403.0100708008" y="-9.5366210938"/>
			<point x="265.5303955078" y="-9.5366210938" type="qcurve" smooth="yes"/>
			<point x="211.0523681641" y="-9.5366210938"/>
			<point x="84.8369140625" y="118.685546875"/>
		</contour>
	</outline>
	<anchor name="bottom" x="548" y="0"/>
	<anchor name="ogonek" x="878" y="0"/>
	<anchor name="top" x="514" y="1000"/>
</glyph>
<glyph name="f" format="2">
	<unicode hex="0066"/>
	<advance width="709"/>
	<outline>
		<contour>
			<point x="62.3358764648" y="0" type="line"/>
			<point x="62.3358764648" y="79.9975585938" type="line"/>
			<point x="262.5805053711" y="114.9975585938" type="line"/>
			<point x="268.5805053711" y="549.2290039062" type="line"/>
			<point x="266.5805053711" y="833.1818847656" type="line"/>
			<point x="109.2452392578" y="866.1818847656" type="line"/>
			<point x="109.2452392578" y="968.4116210938" type="line"/>
			<point x="268.5805053711" y="982.4116210938" type="line"/>
			<point x="268.5805053711" y="1258.4566650391" type="line" smooth="yes"/>
			<point x="265.6484375" y="1365.6028442383"/>
			<point x="394.7312011719" y="1485.7045288086"/>
			<point x="472.5282592773" y="1485.7045288086" type="qcurve" smooth="yes"/>
			<point x="528.4790039062" y="1485.7045288086"/>
			<point x="578.0296630859" y="1461.0009765625"/>
			<point x="606.0719604492" y="1451.979309082" type="qcurve" smooth="yes"/>
			<point x="612.6929931641" y="1445.3053588867" type="line"/>
			<point x="628.6250610352" y="1318.4747924805" type="line"/>
			<point x="607.4497680664" y="1322.9075927734" type="line" smooth="yes"/>
			<point x="602.8284301758" y="1323.5073852539"/>
			<point x="564.0755004883" y="1334.9072875977"/>
			<point x="537.8098144531" y="1334.9072875977" type="qcurve" smooth="yes"/>
			<point x="476.9025268555" y="1334.9072875977"/>
			<point x="425.330871582" y="1280.3401489258"/>
			<point x="427.0501098633" y="1217.4938354492" type="qcurve" smooth="yes"/>
			<point x="424.4501342773" y="972.4116210938" type="line"/>
			<point x="653.98046875" y="972.4116210938" type="line"/>
			<point x="653.98046875" y="851.1818847656" type="line"/>
			<point x="418.4501342773" y="851.1818847656" type="line"/>
			<point x="416.4501342773" y="549.2290039062" type="line"/>
			<point x="422.4501342773" y="114.9975585938" type="line"/>
			<point x="647.262512207" y="79.9975585938" type="line"/>
			<point x="647.262512207" y="0" type="line"/>
		</contour>
	</outline>
	<anchor name="bottom" x="314" y="0"/>
	<anchor name="top" x="314" y="1536"/>
</glyph>
<glyph name="h" format="2">
	<unicode hex="0068"/>
	<advance width="1237"/>
	<outline>
		<contour>
			<point x="60.1354980469" y="0" type="line"/>
			<point x="60.1354980469" y="79.9975585938" type="line"/>
			<point x="204.1636962891" y="114.9975585938" type="line"/>
			<point x="206.1636962891" y="559.2290039062" type="line"/>
			<point x="204.1636962891" y="1352.0029296875" type="line"/>
			<point x="-4.7565917969" y="1386.0029296875" type="line"/>
			<point x="-4.7565917969" y="1480.0004882812" type="line"/>
			<point x="265.1676025391" y="1529.0249023438" type="line"/>
			<point x="307.1676025391" y="1529.0249023438" type="line"/>
			<point x="365.1676025391" y="1482.0249023438" type="line"/>
			<point x="363.1676025391" y="849.9825439453" type="line"/>
			<point x="397.8223266602" y="905.2705688477"/>
			<point x="588.09765625" y="1014.533203125"/>
			<point x="719.4092407227" y="1014.533203125" type="qcurve" smooth="yes"/>
			<point x="860.2011108398" y="1014.533203125"/>
			<point x="1027.3721313477" y="885.2575073242"/>
			<point x="1027.3721313477" y="771.2972412109" type="qcurve" smooth="yes"/>
			<point x="1027.3721313477" y="696.2580566406"/>
			<point x="1027.3721313477" y="668.3577880859"/>
			<point x="1027.3721313477" y="593.2290039062" type="qcurve" smooth="yes"/>
			<point x="1031.3721313477" y="114.9975585938" type="line"/>
			<point x="1188.3733520508" y="79.9975585938" type="line"/>
			<point x="1188.3733520508" y="0" type="line"/>
			<point x="726.745300293" y="0" type="line"/>
			<point x="726.745300293" y="79.9975585938" type="line"/>
			<point x="857.3682250977" y="114.9975585938" type="line"/>
			<point x="861.3682250977" y="566.2822265625" type="line"/>
			<point x="861.3682250977" y="735.8120727539" type="line" smooth="yes"/>
			<point x="861.3682250977" y="799.6961669922"/>
			<point x="753.9232177734" y="869.3283691406"/>
			<point x="659.6672363281" y="869.3283691406" type="qcurve" smooth="yes"/>
			<point x="583.7648925781" y="869.3283691406"/>
			<point x="424.2138671875" y="810.9744262695"/>
			<point x="375.9188232422" y="720.7702636719" type="qcurve"/>
			<point x="369.1676025391" y="572.9992675781" type="line"/>
			<point x="371.1676025391" y="114.9975585938" type="line"/>
			<point x="520.5471191406" y="79.9975585938" type="line"/>
			<point x="520.5471191406" y="0" type="line"/>
		</contour>
	</outline>
	<anchor name="bottom" x="629" y="0"/>
	<anchor name="center" x="347" y="1202"/>
	<anchor name="top" x="304" y="1534"/>
</glyph>
<glyph name="l" format="2">
	<unicode hex="006C"/>
	<advance width="648"/>
	<outline>
		<contour>
			<point x="76.9125976562" y="0" type="line"/>
			<point x="76.9125976562" y="79.9975585938" type="line"/>
			<point x="251.1842041016" y="114.9975585938" type="line"/>
			<point x="254.1842041016" y="527" type="line"/>
			<point x="251.1842041016" y="1350.0029296875" type="line"/>
			<point x="34.0205078125" y="1384.0029296875" type="line"/>
			<point x="34.0205078125" y="1480.0004882812" type="line"/>
			<point x="337.1881103516" y="1529.0249023438" type="line"/>
			<point x="369.1881103516" y="1529.0249023438" type="line"/>
			<point x="426.1881103516" y="1482.0249023438" type="line"/>
			<point x="424.1881103516" y="527" type="line"/>
			<point x="426.1881103516" y="114.9975585938" type="line"/>
			<point x="596.8110351562" y="79.9975585938" type="line"/>
			<point x="596.8110351562" y="0" type="line"/>
		</contour>
	</outline>
	<anchor name="bottom" x="316" y="0"/>
	<anchor name="center" x="316" y="750"/>
	<anchor name="top" x="316" y="1534"/>
	<anchor name="topright" x="367" y="1000"/>
	<anchor name="centerright" x="746" y="680"/>
	<anchor name="yu_dash" x="321" y="500"/>
	<anchor name="liga" x="632" y="0"/>
</glyph>
<glyph name="p" format="2">
	<unicode hex="0070"/>
	<advance width="1168"/>
	<outline>
		<contour>
			<point x="41.1264038086" y="-480" type="line"/>
			<point x="41.1264038086" y="-401.0024414062" type="line"/>
			<point x="230.8167724609" y="-366.0024414062" type="line"/>
			<point x="232.8167724609" y="396.5190429688" type="line"/>
			<point x="230.8167724609" y="850.4497070312" type="line"/>
			<point x="41.8155517578" y="880.4497070312" type="line"/>
			<point x="41.8155517578" y="960.866027832" type="line"/>
			<point x="335.4504394531" y="1002.4716796875" type="line"/>
			<point x="370.4504394531" y="975.4716796875" type="line"/>
			<point x="400.4504394531" y="896.447265625" type="line"/>
			<point x="383.8406982422" y="937.1459960938"/>
			<point x="581.6802368164" y="1014.7302246094"/>
			<point x="731.5758666992" y="1014.7302246094" type="qcurve" smooth="yes"/>
			<point x="917.3724365234" y="1014.7302246094"/>
			<point x="1100.3072509766" y="782.1591186523"/>
			<point x="1100.3072509766" y="535.5881347656" type="qcurve" smooth="yes"/>
			<point x="1100.3072509766" y="280.8098144531"/>
			<point x="888.407043457" y="-8.0244140625"/>
			<point x="682.3951416016" y="-7.0244140625" type="qcurve" smooth="yes"/>
			<point x="524.7289428711" y="-6.0244140625"/>
			<point x="383.3986206055" y="42.6462402344"/>
			<point x="403.4504394531" y="56" type="qcurve"/>
			<point x="405.4504394531" y="-366.0024414062" type="line"/>
			<point x="635.1003417969" y="-401.0024414062" type="line"/>
			<point x="635.1003417969" y="-480" type="line"/>
		</contour>
		<contour>
			<point x="401.4504394531" y="181.1351928711" type="line"/>
			<point x="415.5675048828" y="124.1347045898"/>
			<point x="558.2613525391" y="66.1620483398"/>
			<point x="640.6123657227" y="66.1620483398" type="qcurve" smooth="yes"/>
			<point x="767.731262207" y="66.1620483398"/>
			<point x="931.5192871094" y="353.8073730469"/>
			<point x="931.5192871094" y="489.5881347656" type="qcurve" smooth="yes"/>
			<point x="931.5192871094" y="660.3312988281"/>
			<point x="784.1730957031" y="926.4884033203"/>
			<point x="656.6424560547" y="926.4884033203" type="qcurve" smooth="yes"/>
			<point x="570.0794067383" y="926.4884033203"/>
			<point x="443.2574462891" y="851.008605957"/>
			<point x="402.4504394531" y="792.5501098633" type="qcurve"/>
			<point x="398.4504394531" y="410.9608154297" type="line"/>
		</contour>
	</outline>
	<anchor name="bottom" x="599" y="0"/>
	<anchor name="top" x="599" y="1000"/>
</glyph>
<glyph name="q" format="2">
	<unicode hex="0071"/>
	<advance width="1236"/>
	<outline>
		<contour>
			<point x="70.7318115234" y="490.6066894531" type="qcurve" smooth="yes"/>
			<point x="70.7318115234" y="756.0754394531"/>
			<point x="347.1226806641" y="1012.6970214844"/>
			<point x="551.7354125977" y="1012.6970214844" type="qcurve" smooth="yes"/>
			<point x="629.559387207" y="1012.6970214844"/>
			<point x="805.2974243164" y="976.1510009766"/>
			<point x="809.3851928711" y="962.0792236328" type="qcurve"/>
			<point x="872.3851928711" y="999.1945800781" type="line"/>
			<point x="1168.664855957" y="972.1701660156" type="line"/>
			<point x="1168.664855957" y="890.3726196289" type="line"/>
			<point x="992.0014648438" y="858.3726196289" type="line"/>
			<point x="988.0014648438" y="433.3259277344" type="line"/>
			<point x="998.0014648438" y="-366.0024414062" type="line"/>
			<point x="1176.6513671875" y="-401.0024414062" type="line"/>
			<point x="1176.6513671875" y="-480" type="line"/>
			<point x="626.0718383789" y="-480" type="line"/>
			<point x="626.0718383789" y="-401.0024414062" type="line"/>
			<point x="831.6273193359" y="-368.0024414062" type="line"/>
			<point x="836.6273193359" y="65.9038085938" type="line"/>
			<point x="795.1909790039" y="37.1750488281"/>
			<point x="592.4754638672" y="-3.2780761719"/>
			<point x="496.0882568359" y="-3.2780761719" type="qcurve" smooth="yes"/>
			<point x="316.3891601562" y="-3.2780761719"/>
			<point x="70.7318115234" y="243.8212890625"/>
		</contour>
		<contour>
			<point x="254.7647705078" y="511.2495117188" type="qcurve" smooth="yes"/>
			<point x="254.7647705078" y="293.7353515625"/>
			<point x="429.7177124023" y="91.689453125"/>
			<point x="555.2777099609" y="91.689453125" type="qcurve" smooth="yes"/>
			<point x="649.1559448242" y="91.689453125"/>
			<point x="794.3851928711" y="136.5583496094"/>
			<point x="829.6273193359" y="175.369140625" type="qcurve"/>
			<point x="829.6273193359" y="821.1906738281" type="line"/>
			<point x="789.3851928711" y="887.1591186523"/>
			<point x="651.2891845703" y="911.3497924805"/>
			<point x="576.0957641602" y="911.3497924805" type="qcurve" smooth="yes"/>
			<point x="458.9181518555" y="911.3497924805"/>
			<point x="254.7647705078" y="668.4311523438"/>
		</contour>
	</outline>
	<anchor name="bottom" x="594" y="0"/>
	<anchor name="top" x="594" y="1000"/>
</glyph>
<glyph name="s" format="2">
	<unicode hex="0073"/>
	<advance width="814"/>
	<outline>
		<contour>
			<point x="21.2581259849" y="0" type="line"/>
			<point x="21.2581259849" y="308.2848510742" type="line"/>
			<point x="113.1090170982" y="308.2848510742" type="line"/>
			<point x="118.1090170982" y="260.2848510742" type="line" smooth="yes"/>
			<point x="127.1232993248" y="175.2848510742"/>
			<point x="282.5083090904" y="95.7677612305"/>
			<point x="381.3584067466" y="94.7677612305" type="qcurve" smooth="yes"/>
			<point x="483.8158652427" y="94.7677612305"/>
			<point x="623.9869467857" y="180.9325561523"/>
			<point x="623.0657431724" y="254.4381713867" type="qcurve" smooth="yes"/>
			<point x="622.1445395591" y="336.1546630859"/>
			<point x="497.146065438" y="417.9881591797"/>
			<point x="343.9455039146" y="465.0881347656" type="qcurve" smooth="yes"/>
			<point x="176.3349082115" y="519.4892578125"/>
			<point x="69.0382773521" y="648.1745605469"/>
			<point x="70.8664023521" y="761.1998291016" type="qcurve" smooth="yes"/>
			<point x="72.7230918052" y="869.5532226562"/>
			<point x="252.1036460044" y="1022.7204589844"/>
			<point x="406.5309531333" y="1022.7204589844" type="qcurve" smooth="yes"/>
			<point x="509.754646981" y="1022.7204589844"/>
			<point x="587.031197274" y="981.8991699219"/>
			<point x="615.3116538169" y="956.8991699219" type="qcurve"/>
			<point x="639.3116538169" y="1003.447265625" type="line"/>
			<point x="685.6833579185" y="1003.447265625" type="line"/>
			<point x="685.6833579185" y="736.580078125" type="line"/>
			<point x="592.3116538169" y="736.580078125" type="line"/>
			<point x="575.3360068443" y="768.3060302734" type="line" smooth="yes"/>
			<point x="557.8875815513" y="837.580078125"/>
			<point x="484.095650399" y="910.8532714844"/>
			<point x="408.6621176841" y="910.8532714844" type="qcurve" smooth="yes"/>
			<point x="320.3389365318" y="910.8532714844"/>
			<point x="211.0114218833" y="842.0735473633"/>
			<point x="211.0114218833" y="796.1812744141" type="qcurve" smooth="yes"/>
			<point x="211.0114218833" y="735.5379638672"/>
			<point x="289.9337851646" y="657.5701293945"/>
			<point x="432.2020957114" y="612.6303710938" type="qcurve" smooth="yes"/>
			<point x="563.8526694419" y="563.959777832"/>
			<point x="773.6102988365" y="436.9351806641"/>
			<point x="773.6102988365" y="299.3870849609" type="qcurve" smooth="yes"/>
			<point x="773.6102988365" y="148.3697509766"/>
			<point x="584.3583457115" y="-19.5170898438"/>
			<point x="421.5646445396" y="-19.5170898438" type="qcurve" smooth="yes"/>
			<point x="302.9590537193" y="-19.5170898438"/>
			<point x="124.5574423912" y="12.8221435547"/>
			<point x="85.6298300864" y="37.5480957031" type="qcurve"/>
			<point x="71.1090170982" y="0" type="line"/>
		</contour>
	</outline>
	<anchor name="bottom" x="468" y="0"/>
	<anchor name="top" x="416" y="1000"/>
</glyph>
<glyph name="u" format="2">
	<unicode hex="0075"/>
	<advance width="1252"/>
	<outline>
		<contour>
			<point x="33.7338867188" y="880.4497070312" type="line"/>
			<point x="33.7338867188" y="973.447265625" type="line"/>
			<point x="267.5611572266" y="1005.447265625" type="line"/>
			<point x="334.5611572266" y="1005.447265625" type="line"/>
			<point x="370.5611572266" y="956.447265625" type="line"/>
			<point x="369.5611572266" y="475.5144042969" type="line"/>
			<point x="370.5611572266" y="236.9331665039" type="line" smooth="yes"/>
			<point x="370.5611572266" y="189.4580688477"/>
			<point x="485.3889770508" y="111.3850708008"/>
			<point x="588.5541992188" y="111.3850708008" type="qcurve" smooth="yes"/>
			<point x="683.4565429688" y="111.3850708008"/>
			<point x="808.5362548828" y="193.032043457"/>
			<point x="849.7069091797" y="228.3408203125" type="qcurve"/>
			<point x="849.7069091797" y="470.2900390625" type="line"/>
			<point x="848.7069091797" y="850.4497070312" type="line"/>
			<point x="660.3273925781" y="880.4497070312" type="line"/>
			<point x="660.3273925781" y="973.447265625" type="line"/>
			<point x="919.2589111328" y="1005.447265625" type="line"/>
			<point x="986.2589111328" y="1005.447265625" type="line"/>
			<point x="1022.2589111328" y="956.447265625" type="line"/>
			<point x="1019.2589111328" y="470.2900390625" type="line"/>
			<point x="1021.2589111328" y="146.5979614258" type="line"/>
			<point x="1202.2601318359" y="116.5979614258" type="line"/>
			<point x="1202.2601318359" y="23" type="line"/>
			<point x="923.7069091797" y="-11" type="line"/>
			<point x="866.7069091797" y="36" type="line"/>
			<point x="848.8031005859" y="121" type="line"/>
			<point x="768.9713745117" y="53.9951171875"/>
			<point x="597.888671875" y="-7.7756347656"/>
			<point x="495.0703125" y="-7.7756347656" type="qcurve" smooth="yes"/>
			<point x="367.6936645508" y="-7.7756347656"/>
			<point x="202.7351074219" y="151.5413208008"/>
			<point x="202.7351074219" y="258.2243652344" type="qcurve" smooth="yes"/>
			<point x="202.7351074219" y="316.2243652344"/>
			<point x="203.7351074219" y="483.5144042969"/>
			<point x="203.7351074219" y="503.5144042969" type="qcurve" smooth="yes"/>
			<point x="202.7351074219" y="850.4497070312" type="line"/>
		</contour>
	</outline>
	<anchor name="bottom" x="622" y="0"/>
	<anchor name="ogonek" x="1030" y="20"/>
	<anchor name="top" x="622" y="1000"/>
	<anchor name="topright" x="1005" y="1000"/>
	<anchor name="cy_descender" x="1178" y="80"/>
</glyph>
<glyph name="z" format="2">
	<unicode hex="007A"/>
	<advance width="875"/>
	<outline>
		<contour>
			<point x="53.4603881836" y="0" type="line"/>
			<point x="53.4603881836" y="118.0212402344" type="line"/>
			<point x="609.5732421875" y="895.0309448242" type="line"/>
			<point x="161.8754272461" y="895.0309448242" type="line"/>
			<point x="137.8754272461" y="706.0309448242" type="line"/>
			<point x="58.81640625" y="706.0309448242" type="line"/>
			<point x="58.81640625" y="1003.447265625" type="line"/>
			<point x="774.4317016602" y="1003.447265625" type="line"/>
			<point x="774.4317016602" y="857.4260253906" type="line"/>
			<point x="210.4594726562" y="108.4163208008" type="line"/>
			<point x="735.0083618164" y="108.4163208008" type="line"/>
			<point x="759.0083618164" y="294.4163208008" type="line"/>
			<point x="833.2755126953" y="294.4163208008" type="line"/>
			<point x="833.2755126953" y="0" type="line"/>
		</contour>
	</outline>
	<anchor name="bottom" x="443" y="0"/>
	<anchor name="top" x="443" y="1000"/>
	<anchor name="_liga" x="0" y="0"/>
</glyph>
